<svg width="214" height="42" viewBox="0 0 214 42" fill="none" xmlns="http://www.w3.org/2000/svg">
<g clip-path="url(#clip0_1_3)">
<path d="M11.92 25.72C11.61 27.5 11.32 29.2 10.99 31.08H30.74C30.35 33.26 29.99 35.28 29.62 37.33H0C1.04 31.41 2.07 25.57 3.11 19.64H31.5C31.14 21.69 30.79 23.66 30.43 25.72H11.92Z" fill="white"/>
<path d="M133.17 7.81003H134.66C142.16 7.81003 149.65 7.81003 157.15 7.81003C158.22 7.81003 159.33 7.83003 160.36 8.06003C164.73 9.07003 165.74 12.35 164.33 16.66C163.68 18.66 162.25 20.09 160.3 21.06C160.96 21.45 161.63 21.74 162.17 22.17C164.46 23.99 164.32 26.52 163.81 28.96C162.79 33.83 158.96 37.16 153.75 37.28C145.32 37.48 136.87 37.35 128.43 37.35C128.35 37.35 128.26 37.3 127.98 37.19C129.69 27.47 131.41 17.72 133.16 7.78003V7.80003L133.17 7.81003ZM138.96 31C142.83 31 146.45 31.06 150.07 30.95C150.89 30.93 151.83 30.49 152.48 29.96C153.52 29.12 153.89 27.88 153.48 26.56C153.12 25.4 152.07 25.07 151.01 25.05C147.39 25 143.76 25.03 140.01 25.03C139.66 27 139.33 28.91 138.96 30.99V31ZM141.02 19.24C144.58 19.24 147.9 19.24 151.22 19.22C151.7 19.22 152.2 19.05 152.65 18.86C153.78 18.39 154.47 17.1 154.31 15.9C154.15 14.73 153.26 14.25 152.32 14.23C148.87 14.14 145.42 14.2 141.95 14.2C141.64 15.9 141.35 17.48 141.03 19.24H141.02Z" fill="white"/>
<path d="M103.32 18.32C103.94 14.81 104.55 11.42 105.17 7.92999H115.03C113.3 17.72 111.58 27.49 109.85 37.33H99.99C100.7 33.26 101.4 29.24 102.12 25.11H87.19C86.47 29.12 85.74 33.19 85 37.34H75.15C76.88 27.52 78.6 17.78 80.33 7.92999H90.19C89.59 11.38 89 14.79 88.39 18.32H103.32Z" fill="white"/>
<path d="M180.79 14.49C181.21 12.16 181.6 10.06 181.99 7.89001H213.52C213.15 10.09 212.78 12.22 212.41 14.44H201.55C200.19 22.11 198.84 29.71 197.49 37.35H187.64C188.98 29.74 190.3 22.19 191.66 14.49H180.79Z" fill="white"/>
<path d="M170.11 7.89001H179.97C178.24 17.72 176.53 27.44 174.79 37.29H164.92C166.64 27.51 168.36 17.75 170.1 7.89001H170.11Z" fill="white"/>
<path d="M119.12 7.85999H128.98C127.24 17.74 125.52 27.53 123.79 37.34H113.93C115.67 27.48 117.39 17.72 119.12 7.85999Z" fill="white"/>
<path d="M5.18999 7.84998H34.82C34.45 9.96998 34.09 12.01 33.72 14.1H4.10999C4.46999 12.04 4.81999 10.02 5.18999 7.84998Z" fill="white"/>
<path d="M63.05 21.35C67.43 28.14 71.75 34.83 76.22 41.75H58.08C56.85 39.87 55.54 37.86 54.31 35.98H35.43C38.57 31.1 41.67 26.29 44.85 21.34C41.56 16.23 38.25 11.1 34.81 5.76H52.8C53.07 6.06 53.48 6.52 54.02 7.12C55.59 4.72 57.1 2.41 58.68 0H76.81C72.16 7.22 67.6 14.3 63.05 21.36V21.35ZM60.35 2.98C56.39 9.1 52.45 15.2 48.48 21.35C52.27 27.21 56 32.99 59.73 38.75H70.67C66.85 32.82 63.16 27.11 59.45 21.36C63.39 15.24 67.27 9.23 71.29 2.99H60.35V2.98ZM40.32 8.73C42.54 12.15 44.54 15.23 46.68 18.53C48.61 15.53 50.37 12.79 52.16 10.01C51.71 9.47 51.36 9.05 51.1 8.73H40.32ZM46.67 24.11C44.67 27.23 42.84 30.06 40.94 33.03H52.37C50.39 29.94 48.62 27.16 46.67 24.11Z" fill="white"/>
</g>
<defs>
<clipPath id="clip0_1_3">
<rect width="213.52" height="41.75" fill="white"/>
</clipPath>
</defs>
</svg>
